<svg version="1.2" xmlns="http://www.w3.org/2000/svg" viewBox="0 0 481 182" width="175" height="70">
	<title>New Project</title>
	<style>
		.s0 { fill: #394f39 } 
	</style>
	<path id="Frida" class="s0" aria-label="Frida"  d="m67.6 109.2l-2-3q18.3-12.3 48-18.8 34.3-37.4 59-55.4l1.4 2.6q-26.7 22.3-41.2 48.8h2.4q5.1 0 8.6-2 0.9-0.9 2.8-2.7 10.1-9.6 14.2-9.3h0.4l1.2 0.8v0.6q0 2.7-7.2 8-6.5 4.8-10 5.8-5.1 7.5-7.4 19.2l-6.8 2.2q1.9-10.1 8.8-19.8l-8.8 2q-37 66.3-93.5 66.3-27.5 0-27.5-16.3 0-5.9 4.3-10.8 4.3-4.9 10.1-4.9 7.8 0 7.8 7.6 0 2.9-2.9 4.8-2.5 1.7-5.5 1.7-1.7 0-4.2-1.2-2.3-1.2-2.6-1.2-3.2 0-3.2 5 0 6.3 9 9.5 6.4 2.3 14.2 2.3 24.7 0 47-26.6 17.6-21 26.6-33.6-27.2 8.1-43 18.4zm152.8-91.4l1.2 2.2q-16.6 10.8-36.6 10.8-18.1 0-49.4-6.6-20.8-4.4-28.4-4.4-17.9 0-34.6 11.4-18.5 12.6-18.5 29.8 0 18.1 21.6 18.1 31.3 0 56.1-35.1 0.8-1.2 2.2-3.6h3.6q-9.5 18.9-25 30.2-16.9 12.3-36.7 12.3-11.4 0-18.5-5.5-7.6-6-7.6-17.2 0-21.8 26-35.4 21.6-11.4 45.6-11.4 13.4 0 39.5 4.5 26.3 4.5 39.7 4.5 7.8 0 19.8-4.6zm-91 134.4l46.9-61.8h18.1l-33.4 44.4q13.2-10.7 39-32.8 3.4-8.3 7.6-11.1 4.2-2.9 13.2-2.9 3.8 0 3.8 2.4-0.1 0.2-0.4 1-3.6 3.6-7.1 7.2-4.3 4.9-4.3 8.8 0 1.3 2.6 2.2v0.6q0 0.4-0.4 1.4l-1.6 0.4q-2.9-0.2-5.9-0.4-2.8-0.3-5.4-2.4l-1.7-3q-35.2 28.2-53.3 46zm114.8-61.6h18.2q-11.8 14.9-23.6 30-19 24.6-19 28 0 1.8 3.2 1.8 4.4 0 17.7-10.1 11.8-8.8 16.5-14.1l2 1.8q-29 26-38.6 26-10.1 0-10.1-11.3 0-8.1 13.6-26.8 2.3-3 20.1-25.3zm28.8-34.6q3.4 0 6 2.5 2.6 2.3 2.6 5.7 0 4.2-3.4 7.4-3.3 3.1-7.5 3.1-8.7 0-8.7-7.7 0-4.6 3.2-7.7 3.2-3.3 7.8-3.3zm58.5 43.6l54.2-70.6h17.4l-53.6 70q-9.8 12.4-19.6 24.8-13.8 17.9-16.1 24.8 1.1 1.8 3 1.8 5 0 17.9-10.2 10.7-8.4 16.3-14.6l2.1 2.2q-6.7 7.6-18.7 16.3-14.4 10.4-21.5 10.4-10.1 0-10.1-10.8 0-2.3 1.1-9.5-17.8 20-33.7 20-11.6 0-11.6-13.2 0-19.1 23.9-36.5 22.4-16.3 42.3-16.3 3 0 5.3 1.8 2.2 1.9 2.2 4.8 0 2.1-0.8 4.8zm-59.2 52q10.3 0 33.4-22.9 23.2-23 23.2-33.3 0-3.4-3.7-3.4-9.5 0-33.2 23.5-23.7 23.5-23.7 33.1 0 3 4 3zm155.2-52.4l6.9-9.2h17.9q-11.8 15-23.5 29.9-18 23.4-19.1 28.9 0.8 1 1.8 1 10.5 0 35.3-24.6l1.9 2.6q-6.3 7.3-18.4 16.1-14.3 10.5-20.9 10.5-4.1 0-7.7-3.5-3.4-3.7-3.4-7.7 0-1.9 2.5-9.8-5.9 7.3-15.7 13.7-11.1 7.3-19 7.3-5.2 0-8.5-3.8-3.3-3.9-3.3-9.2 0-18.8 22.9-36.5 21.8-16.9 41.1-16.9 9.8 0 9.8 7.9 0 1.5-0.6 3.3zm-63.4 48.8q0 3.4 3.9 3.4 10.3 0 33.4-22.7 23.1-22.8 23.1-33.1 0-3.2-3.5-3.2-9.8 0-33.3 23-23.6 23-23.6 32.6z"/>
</svg>